<svg xmlns="http://www.w3.org/2000/svg" viewBox="0 0 50 50"><defs><style>.cls-1{fill:#cb5d0d;}</style></defs><g id="Layer_2" data-name="Layer 2"><g id="Layer_1-2" data-name="Layer 1"><path class="cls-1" d="M24.94,50A25,25,0,1,1,50,25.1,25,25,0,0,1,24.94,50ZM18.09,22.43c.36-.11.61-.2.87-.26,1.28-.3,1.78-.94,1.43-2.37A46,46,0,0,1,19.45,14c-.11-.95-.56-1.23-1.4-1.31a4.82,4.82,0,0,0-5.23,4.54,21.19,21.19,0,0,0,.25,4,19.44,19.44,0,0,0,19.18,16.2,4.87,4.87,0,0,0,4.92-5.17c0-1-.32-1.5-1.39-1.62-1.74-.18-3.46-.48-5.18-.77-2.31-.38-2.3-.39-3.1,1.85,0,.08-.11.13-.22.26A14.89,14.89,0,0,1,18.09,22.43Z"/></g></g></svg>